<?xml version="1.0" encoding="UTF-8" standalone="no"?>
<!-- Created with Inkscape (http://www.inkscape.org/) -->

<svg
   width="191.06683mm"
   height="230.142mm"
   viewBox="0 0 191.06683 230.142"
   version="1.1"
   id="svg1"
   xml:space="preserve"
   xmlns="http://www.w3.org/2000/svg"
   xmlns:svg="http://www.w3.org/2000/svg"><defs
     id="defs1" /><g
     id="layer1"
     transform="translate(-8.8494731,-17.277766)"><path
       style="fill:#000000"
       d="m 128.76097,247.20362 c -3.31321,-0.18236 -4.49055,-0.63649 -5.94513,-2.29317 -1.16439,-1.32617 -1.52164,-2.26694 -1.967,-5.17988 -0.37121,-2.42791 -1.91381,-9.41075 -2.64802,-11.98672 -0.20738,-0.72761 -0.627,-2.21589 -0.93248,-3.30729 -0.30548,-1.09141 -0.72057,-2.46063 -0.92243,-3.04271 -0.20185,-0.58209 -0.4401,-1.38576 -0.52945,-1.78594 -0.15477,-0.6932 -0.23627,-0.7276 -1.72389,-0.7276 -1.53454,0 -1.56457,0.0143 -1.74351,0.82897 -0.13989,0.63694 -0.24248,0.7442 -0.44285,0.46302 -0.19985,-0.28044 -0.22441,-0.25366 -0.10511,0.11462 0.0856,0.26431 -0.32775,2.05025 -0.91862,3.96875 -1.32024,4.28673 -2.99028,11.10158 -3.5456,14.46838 -0.46152,2.79814 -1.11774,4.84321 -1.48187,4.61816 -0.13146,-0.0813 -0.17675,0.0146 -0.10063,0.21291 0.20002,0.52125 -1.60313,2.26855 -3.02619,2.93246 -1.17668,0.54896 -1.60548,0.57167 -12.265658,0.64942 -6.53673,0.0477 -11.04635,-0.0179 -11.04635,-0.16075 0,-0.13272 -0.26789,-0.19571 -0.59531,-0.13998 -0.90715,0.15442 -2.56574,-0.9554 -3.53349,-2.36439 -1.12656,-1.64019 -1.37905,-3.25193 -0.79813,-5.0948 0.48034,-1.52383 1.38902,-2.86169 1.77967,-2.62026 0.13747,0.085 0.21724,-0.003 0.17725,-0.19591 -0.04,-0.19272 0.085,-0.31768 0.2777,-0.2777 0.19271,0.04 0.28061,-0.0402 0.19532,-0.1782 -0.21793,-0.35263 1.18927,-1.29602 2.97199,-1.99242 1.2955,-0.50607 1.50195,-0.68039 1.45697,-1.23022 -0.0288,-0.35233 -0.25017,-2.36701 -0.49188,-4.47707 -0.36261,-3.16549 -0.41984,-5.75679 -0.32724,-14.81666 0.0617,-6.03912 0.0449,-13.75753 -0.0373,-17.15204 l -0.14952,-6.17183 -2.77812,-1.14488 c -3.47886,-1.43366 -6.31493,-3.02786 -8.32159,-4.67771 -0.15255,-0.12542 -0.60593,-0.47441 -1.0075,-0.77552 -0.40156,-0.30111 -0.65106,-0.6754 -0.55443,-0.83175 0.0966,-0.15636 0.0555,-0.21002 -0.0913,-0.11926 -0.14685,0.0908 -0.5522,-0.15789 -0.90077,-0.55254 l -0.63378,-0.71756 0.66146,0.51845 c 0.65409,0.51268 0.65623,0.51269 0.19193,0.001 -0.25824,-0.28457 -0.67496,-0.51873 -0.92604,-0.52034 -0.27026,-0.002 -0.44171,-0.19069 -0.42024,-0.46312 0.0199,-0.25309 -0.0604,-0.4004 -0.17863,-0.32735 -0.29383,0.1816 -3.57082,-3.53185 -3.52554,-3.99509 0.0199,-0.20409 -0.059,-0.3122 -0.17537,-0.24026 -0.11641,0.0719 -0.43933,-0.18174 -0.7176,-0.56374 l -0.50595,-0.69456 -1.96451,0.45951 c -2.84413,0.66525 -8.95478,0.81634 -12.30267,0.30418 -2.50319,-0.38294 -6.93183,-1.61284 -8.71236,-2.41956 -0.43684,-0.19793 -1.32981,-0.603 -1.98437,-0.90014 -1.12837,-0.51225 -2.84585,-1.46266 -4.1751,-2.31039 -0.33206,-0.21178 -0.53423,-0.49751 -0.44928,-0.63498 0.085,-0.13746 -0.0109,-0.18645 -0.21308,-0.10888 -0.42199,0.16193 -3.0043,-1.88677 -2.89453,-2.2964 0.04,-0.14921 -0.049,-0.19605 -0.19781,-0.1041 -0.73141,0.45203 -9.05632,-9.18903 -8.58837,-9.94618 0.11225,-0.18164 0.0847,-0.24863 -0.0644,-0.15649 -0.14338,0.0886 -0.73988,-0.69667 -1.32557,-1.74506 -3.6742,-6.57687 -6.275822,-15.86687 -6.980123,-24.92491 -0.147094,-1.89178 -0.496794,-4.39209 -0.777113,-5.55625 -1.668837,-6.93064 -1.169513,-14.79658 1.217702,-19.18268 0.769857,-1.41448 3.917514,-5.02665 4.380234,-5.02665 0.14049,0 0.17047,0.13746 0.0666,0.30547 -0.1179,0.19077 -0.0725,0.23358 0.12099,0.114 0.17038,-0.1053 0.24828,-0.29096 0.17312,-0.41258 -0.21099,-0.34139 1.91177,-1.473574 3.92621,-2.094044 3.27377,-1.00837 7.15161,-0.57632 10.04465,1.11911 1.48119,0.868044 3.13626,2.681734 4.0607,4.449904 0.63235,1.20951 0.74282,1.74291 0.76729,3.70488 0.0258,2.07242 0.0958,2.37188 0.73078,3.12645 0.96352,1.14509 1.60342,3.46293 1.40907,5.10394 -0.2422,2.045 -2.38149,5.17971 -3.29577,4.82929 -0.20162,-0.0773 -0.27017,-0.0118 -0.1653,0.15787 0.11954,0.19343 -0.03,0.23726 -0.44928,0.13171 -0.34564,-0.087 -0.47465,-0.0882 -0.28667,-0.003 0.22358,0.10178 0.25505,0.26105 0.091,0.46058 -0.17007,0.20684 0.42246,1.3563 1.84104,3.57149 1.1505,1.79657 2.09182,3.30709 2.09182,3.35671 0,0.0496 0.5391,0.87766 1.198,1.84008 0.65889,0.96242 1.11675,1.88131 1.01745,2.04198 -0.10482,0.16959 -0.0601,0.21768 0.10664,0.11464 0.15795,-0.0976 0.35746,-0.0638 0.44337,0.0752 0.0933,0.15097 0.74974,0.0485 1.63052,-0.25453 0.81089,-0.27899 1.75636,-0.54502 2.10105,-0.59118 0.90931,-0.12177 0.99802,-0.3153 0.54557,-1.19023 -0.57603,-1.11392 -0.76132,-2.02531 -0.88716,-4.36362 -0.15037,-2.79412 0.54392,-4.84002 2.55996,-7.5436 1.57246,-2.10871 2.0598,-3.01051 1.56739,-2.90036 -0.73491,0.1644 -3.40689,-4.55739 -4.45787,-7.87773 -0.69631,-2.19983 -0.79228,-6.16581 -0.19566,-8.085454 0.36081,-1.16092 0.35039,-1.24062 -0.25936,-1.98438 -0.92698,-1.13071 -1.44921,-2.20287 -1.23879,-2.54333 0.10522,-0.17025 0.0659,-0.22471 -0.0918,-0.12722 -0.34563,0.21361 -1.24212,-1.98664 -1.81492,-4.45433 -0.31863,-1.37271 -0.39223,-2.57115 -0.28435,-4.63021 0.19376,-3.69813 0.97815,-5.991439 2.91896,-8.534035 l 0.91306,-1.196172 -0.61406,-1.286459 c -1.47928,-3.098734 -1.90595,-9.064853 -0.92625,-12.951538 0.61946,-2.457517 1.30684,-4.119392 1.62304,-3.923975 0.12354,0.07635 0.15711,-0.03708 0.0746,-0.252078 -0.20343,-0.530122 1.66374,-3.421311 2.05383,-3.180223 0.19833,0.122577 0.22695,0.06655 0.0841,-0.164609 -0.16066,-0.259949 -0.0932,-0.303097 0.26112,-0.167115 0.38261,0.14682 0.41785,0.111192 0.17704,-0.178969 -0.23817,-0.286982 0.0428,-0.691113 1.35164,-1.944367 1.99317,-1.908465 2.97779,-2.579366 3.40134,-2.3176 0.19614,0.121219 0.24783,0.08389 0.13551,-0.09785 -0.24389,-0.394621 3.75399,-2.270126 5.71343,-2.680311 1.46181,-0.306014 1.51788,-0.34935 1.67147,-1.291818 0.0874,-0.536349 0.21876,-1.332369 0.29189,-1.768931 0.2428,-1.449444 1.22823,-4.219542 1.85705,-5.220263 0.34109,-0.542811 0.62016,-1.067773 0.62016,-1.166583 0,-0.246475 1.88738,-2.726138 2.99638,-3.936677 0.59082,-0.644915 1.02666,-0.918943 1.24598,-0.783395 0.21091,0.130349 0.27171,0.102331 0.16226,-0.07477 -0.0963,-0.155781 0.33181,-0.720094 0.95131,-1.254029 2.85013,-2.456483 7.92338,-4.476636 12.00573,-4.780649 3.80285,-0.283198 8.1693,0.579128 9.18057,1.813062 0.43217,0.527322 0.45416,0.5318 0.21748,0.0443 -0.20081,-0.413617 -0.1361,-0.743229 0.27261,-1.388744 0.29474,-0.465523 0.66176,-0.768621 0.81558,-0.673551 0.16106,0.09954 0.20197,0.0471 0.0965,-0.123615 -0.28356,-0.458822 1.11933,-1.87937 1.7383,-1.760167 0.45396,0.08743 0.47872,0.04338 0.17878,-0.318031 -0.30065,-0.362258 -0.16845,-0.575709 0.96864,-1.564046 2.98885,-2.597856 7.67293,-4.738615 11.838698,-5.410626 3.14654,-0.507592 7.7361,-0.211381 10.51247,0.678479 1.23693,0.396449 2.96333,1.078259 3.83646,1.515133 1.44479,0.722913 3.7743,2.179731 4.10104,2.564698 0.0728,0.08573 0.46135,0.365292 0.86353,0.621257 0.5581,0.355195 0.70298,0.62128 0.61186,1.123758 -0.0685,0.377663 -0.0118,0.591869 0.13297,0.502403 0.1388,-0.08578 0.17622,-0.27915 0.0832,-0.42971 -0.093,-0.15056 0.14808,-0.06587 0.53585,0.188211 0.68285,0.447418 0.7609,0.439822 2.47997,-0.241344 5.53514,-2.193242 10.93671,-2.324565 15.98533,-0.388634 2.32192,0.890358 6.14025,3.270434 5.89176,3.672506 -0.091,0.147225 -0.0673,0.250632 0.0527,0.229794 0.56214,-0.09765 0.87957,0.06016 0.87957,0.437266 0,0.22687 0.10821,0.345613 0.24046,0.263874 0.30711,-0.189806 1.66451,1.405248 1.46735,1.724258 -0.0813,0.131533 0.0576,0.160313 0.30875,0.06395 0.35379,-0.135761 0.41712,-0.07243 0.28136,0.281356 -0.0987,0.257173 -0.0673,0.389849 0.0719,0.30381 0.28273,-0.174734 1.98397,2.240204 3.0169,4.282524 0.83893,1.658765 2.02157,5.196507 2.02157,6.047349 0,0.836216 0.253,0.940964 2.59537,1.074521 1.11916,0.06381 2.90267,0.288872 3.96336,0.500135 2.06244,0.410786 5.51719,1.960917 5.42271,2.433145 -0.0314,0.156967 0.14719,0.234763 0.39687,0.17288 0.55255,-0.136944 2.25761,1.404582 2.00524,1.812917 -0.10998,0.177958 -0.054,0.211199 0.14672,0.08714 0.45597,-0.281802 2.83175,2.2738 4.06348,4.371037 0.54942,0.935496 1.31873,2.653401 1.70958,3.817567 0.65074,1.93832 0.71148,2.47336 0.72083,6.35 0.009,3.701124 -0.0663,4.475413 -0.59849,6.158902 -0.38905,1.230711 -0.7141,1.860429 -0.90078,1.745057 -0.17763,-0.109784 -0.21705,-0.05914 -0.10062,0.129268 0.1053,0.170378 0.28499,0.251975 0.3993,0.181326 0.30293,-0.18722 1.38464,1.044689 1.14708,1.306349 -0.11047,0.121675 -0.062,0.141762 0.10764,0.04464 0.34078,-0.195066 1.97895,1.583414 2.63769,2.86362 2.28346,4.437683 2.52133,9.513558 0.66827,14.259728 -0.80692,2.06672 -2.1039,4.27862 -2.35915,4.02337 -0.0889,-0.0889 -0.0208,-0.30259 0.15139,-0.47479 0.1722,-0.1722 0.31309,-0.43484 0.31309,-0.58363 0,-0.1488 -0.18549,-0.006 -0.4122,0.31796 -0.22671,0.32368 -0.33598,0.71184 -0.24281,0.8626 0.0932,0.15075 -0.25858,0.74781 -0.78167,1.3268 -0.88228,0.97659 -0.92353,1.09546 -0.57042,1.64368 1.22511,1.90201 1.66409,7.085728 0.8617,10.175398 -0.4177,1.60839 -1.88191,4.83535 -2.19401,4.83535 -0.0862,0 -0.0883,-0.17859 -0.004,-0.39687 0.2273,-0.59234 -0.0331,-0.47902 -0.37735,0.16422 -0.21106,0.39435 -0.21382,0.50765 -0.009,0.38126 0.40962,-0.25316 0.36158,0.16201 -0.094,0.81245 -0.35777,0.5108 -0.27379,0.69465 1.18852,2.60182 2.70167,3.52356 3.96427,6.88902 3.56242,9.49568 -0.23593,1.53041 -0.91136,3.56968 -1.25207,3.78025 -0.18152,0.11219 -0.2074,0.0504 -0.0712,-0.17006 0.1427,-0.23089 0.11079,-0.28252 -0.0957,-0.15489 -0.17038,0.1053 -0.23994,0.30446 -0.15458,0.44258 0.19148,0.30983 -0.82863,2.00476 -1.39853,2.3237 -0.35387,0.19803 -0.31101,0.30291 0.28288,0.69203 0.38497,0.25225 0.62305,0.58307 0.52905,0.73515 -0.0984,0.1592 -0.0436,0.19786 0.1291,0.0911 0.165,-0.10197 0.55667,-0.048 0.87037,0.11985 0.46336,0.24798 0.50162,0.35425 0.20391,0.56636 -0.2793,0.199 -0.24999,0.22324 0.12323,0.10192 0.49918,-0.16227 2.553,0.81623 2.553,1.21632 0,0.11872 0.17185,0.21586 0.38188,0.21586 0.21003,0 0.56951,0.26789 0.79884,0.59532 0.22934,0.32742 0.46102,0.53578 0.51484,0.46302 0.16587,-0.2242 2.52727,1.87596 2.4645,2.19184 -0.0325,0.16334 0.15144,0.30254 0.40867,0.30934 0.67299,0.0178 4.0801,3.76599 6.50489,7.15611 4.4578,6.23248 6.7635,12.22601 7.43673,19.33131 0.32252,3.4039 0.02,6.77189 -0.93726,10.43431 -0.70774,2.70777 -2.42663,6.68611 -2.79141,6.46067 -0.12294,-0.076 -0.16182,0.0227 -0.0864,0.21924 0.15905,0.41447 -1.57607,3.19027 -3.1558,5.04859 -2.86061,3.36508 -6.79501,6.97595 -7.27665,6.67828 -0.14164,-0.0875 -0.34368,-0.0198 -0.44898,0.15062 -0.11957,0.19347 -0.0768,0.2389 0.11401,0.12099 0.16801,-0.10383 0.30547,-0.13915 0.30547,-0.0785 0,0.28066 -3.20576,2.04982 -3.44566,1.90156 -0.14939,-0.0923 -0.2389,-0.0102 -0.19892,0.18252 0.0437,0.21081 -0.1592,0.34259 -0.50945,0.3308 -0.32019,-0.0108 -0.53034,0.0643 -0.467,0.16675 0.30199,0.48862 -7.07161,3.49171 -9.45036,3.8489 -0.73052,0.1097 -1.43449,0.44727 -1.9533,0.93665 -0.44613,0.42083 -0.90254,0.67375 -1.01424,0.56205 -0.1117,-0.1117 -0.1634,-0.0636 -0.11489,0.10688 0.129,0.45339 -2.73004,2.51939 -3.28547,2.37414 -0.28486,-0.0745 -0.39566,-0.0114 -0.28746,0.16365 0.11243,0.18192 0.012,0.22191 -0.27797,0.11065 -0.24971,-0.0958 -0.38908,-0.0692 -0.30972,0.0592 0.0794,0.12842 -0.69907,0.44016 -1.72986,0.69277 -3.3318,0.8165 -7.74646,0.0176 -10.29087,-1.86233 -1.80597,-1.33432 -3.27114,-2.93747 -3.03453,-3.3203 0.12808,-0.20724 0.0952,-0.2624 -0.0887,-0.14877 -0.1607,0.0993 -0.42141,-0.0609 -0.57935,-0.35599 -0.15794,-0.29512 -0.3813,-0.53658 -0.49636,-0.53658 -0.51452,0 -0.79603,7.34496 -0.52224,13.62604 0.31176,7.15218 0.13577,14.78053 -0.43644,18.91771 -0.21134,1.52797 -0.38802,2.93118 -0.39263,3.11825 -0.007,0.27985 1.8689,1.29309 2.57471,1.39077 0.10727,0.0149 0.61175,0.33788 1.12108,0.71786 3.82233,2.85165 4.63529,6.95024 1.99128,10.03917 -1.58845,1.85574 -2.11752,1.93872 -12.02644,1.88612 -4.73988,-0.0252 -9.92766,-0.11783 -11.52838,-0.20594 z m -3.43959,-1.07123 c -0.0899,-0.14552 -0.30532,-0.26276 -0.47863,-0.26053 -0.18934,0.002 -0.15671,0.10642 0.0818,0.26053 0.50829,0.32848 0.59989,0.32848 0.39687,0 z m -1.95154,-2.98097 c -0.26131,-0.25937 -0.2917,-0.22898 -0.14811,0.14811 0.0994,0.26094 0.2473,0.40778 0.32876,0.32632 0.0815,-0.0815 1.7e-4,-0.29496 -0.18065,-0.47443 z m 24.30273,0.17976 c 1.53021,-0.50051 2.14888,-1.50971 1.62728,-2.6545 -0.16774,-0.36815 -0.22485,-0.80927 -0.12691,-0.98026 0.0979,-0.171 0.0779,-0.21994 -0.0444,-0.10877 -0.12238,0.11118 -0.52843,-0.0787 -0.90232,-0.4219 -0.37389,-0.34323 -1.498,-0.96425 -2.49803,-1.38004 -1.00002,-0.41579 -2.22041,-1.14656 -2.71197,-1.62394 -0.88996,-0.86426 -1.25253,-1.50443 -0.49688,-0.8773 0.53099,0.44068 0.5078,0.14873 -0.031,-0.39005 -0.39371,-0.39371 -0.394,-0.67494 -0.004,-3.52463 0.71611,-5.22777 0.97595,-12.30442 0.67232,-18.31032 -0.15081,-2.98317 -0.31762,-5.5601 -0.37069,-5.72651 -0.21999,-0.68986 -6.57691,0.95465 -10.13332,2.62146 -0.97644,0.45764 -1.9229,0.82115 -2.10323,0.80781 -0.18033,-0.0134 -0.27032,0.0689 -0.19996,0.18272 0.16407,0.26547 -0.63138,0.57766 -0.9578,0.37592 -0.13599,-0.084 -0.21455,-0.0365 -0.17456,0.1057 0.10402,0.36989 -1.89125,1.67676 -2.23533,1.4641 -0.16683,-0.10311 -0.21156,-0.055 -0.10669,0.11465 0.0993,0.1607 -0.0516,0.41644 -0.33536,0.56831 -0.28377,0.15187 -0.67406,0.42701 -0.86731,0.61142 -1.32021,1.25984 -2.71803,2.27249 -2.94403,2.13281 -0.14697,-0.0908 -0.19651,-0.0507 -0.1101,0.0891 0.0864,0.13982 -0.32017,0.71742 -0.90352,1.28357 -0.84826,0.82327 -1.10752,0.95349 -1.29485,0.65038 -0.14478,-0.23426 -0.17366,0.0742 -0.0756,0.80782 0.0872,0.65276 0.16464,1.65275 0.17203,2.22221 0.007,0.56947 0.0652,0.88008 0.12849,0.69026 0.12393,-0.37179 0.74774,1.13344 1.09407,2.63998 0.11709,0.50932 0.57787,2.35479 1.02394,4.10104 1.21783,4.76739 1.57664,6.37108 2.03826,9.10983 0.88852,5.27156 0.59524,5.11036 9.7597,5.36438 8.50631,0.23578 11.63291,0.34783 11.74494,0.42089 0.0454,0.0296 0.66035,-0.13512 1.36653,-0.3661 z m -46.47228,-0.41829 c 0.41235,-0.0161 0.6179,-0.11069 0.45677,-0.21027 -0.1952,-0.12064 -0.12135,-0.33639 0.22131,-0.64648 0.28285,-0.25598 0.66739,-1.08065 0.85453,-1.83261 0.451,-1.81213 0.42261,-1.66512 0.4813,-2.49166 0.0468,-0.65858 0.0744,-0.6774 0.29142,-0.19844 0.17906,0.39523 0.20591,0.29478 0.10606,-0.39688 -0.13504,-0.93547 0.54684,-4.72986 1.33134,-7.40833 0.23442,-0.80036 0.65924,-2.34818 0.94405,-3.43958 0.74571,-2.85766 1.05369,-3.90846 1.64843,-5.62433 l 0.52799,-1.52329 -1.69911,-1.55692 c -5.75514,-5.27354 -9.978908,-7.88418 -15.041948,-9.29715 -2.04815,-0.57159 -6.07015,-1.15175 -6.31155,-0.91043 -0.0939,0.0939 -0.16875,4.65541 -0.16632,10.13672 0.004,8.34069 0.0791,10.35438 0.46217,12.34727 0.58133,3.02409 0.59025,4.97837 0.0266,5.83855 -0.25706,0.39233 -1.54861,1.20414 -3.18071,1.99925 -3.22827,1.57271 -4.02525,2.60286 -3.35834,4.34082 0.43126,1.12383 1.26896,1.19856 11.73436,1.04683 5.45703,-0.0791 10.259258,-0.157 10.671608,-0.17307 z m 23.37579,-3.18011 c -0.0845,-0.21107 -0.14716,-0.14837 -0.15985,0.15985 -0.0115,0.27892 0.051,0.43519 0.13896,0.34727 0.0879,-0.0879 0.0973,-0.31613 0.0209,-0.50712 z m 25.72284,-3.63315 c 0.26769,-0.16948 0.1825,-0.22371 -0.30534,-0.19438 -0.37215,0.0224 -0.6215,0.12998 -0.55411,0.23912 0.15926,0.25795 0.40126,0.24535 0.85945,-0.0447 z M 106.93284,217.4251 c -0.18115,-0.21828 -0.45661,-0.39688 -0.61213,-0.39688 -0.15552,0 -0.0516,0.17481 0.23083,0.38846 0.6637,0.502 0.79331,0.50486 0.3813,0.008 z m 13.72328,-3.89113 c 0.82064,-0.7703 1.89984,-1.6982 2.39822,-2.062 0.49839,-0.3638 1.21236,-0.9053 1.5866,-1.20333 3.77136,-3.00336 8.4212,-5.09319 14.0419,-6.311 1.09141,-0.23647 2.34156,-0.43679 2.77812,-0.44515 1.40529,-0.0269 1.77685,-0.31595 1.86129,-1.44785 0.16031,-2.14905 0.47221,-8.7826 0.49565,-10.54153 l 0.0243,-1.8249 -29.50104,0.0374 c -16.225568,0.0206 -29.560558,0.038 -29.633328,0.0387 -0.20552,0.002 0.003,13.34095 0.21199,13.53701 0.10169,0.0956 1.48354,0.31096 3.07077,0.47866 1.58724,0.1677 3.37317,0.47474 3.96875,0.6823 0.59558,0.20756 1.28338,0.37912 1.52845,0.38124 0.71325,0.006 3.66047,1.36919 3.50489,1.62093 -0.0778,0.12592 0.0353,0.16109 0.25143,0.0782 0.21611,-0.0829 0.96401,0.18633 1.66201,0.59834 0.69799,0.41202 1.509618,0.87792 1.803618,1.03534 0.294,0.15742 0.50184,0.43416 0.46185,0.61498 -0.04,0.18082 0.0562,0.24911 0.21371,0.15175 0.29265,-0.18086 1.70859,0.65139 3.51708,2.06727 0.77786,0.60899 0.93103,0.85072 0.66146,1.04392 -0.26666,0.19111 -0.24602,0.21809 0.086,0.11251 0.39537,-0.12571 1.32522,0.52757 3.32526,2.3362 0.5475,0.4951 0.9109,0.52722 5.388,0.47624 l 4.8009,-0.0547 z m 34.43089,-10.52866 c -0.21829,-0.14107 -0.51594,-0.25648 -0.66146,-0.25648 -0.14552,0 -0.086,0.11541 0.13229,0.25648 0.21828,0.14106 0.51594,0.25648 0.66146,0.25648 0.14552,0 0.086,-0.11542 -0.13229,-0.25648 z m 12.30312,-1.85209 c -0.0899,-0.14552 -0.0176,-0.26458 0.16077,-0.26458 0.17837,0 0.25285,-0.0714 0.16551,-0.15879 -0.23765,-0.23765 -0.7555,0.15698 -0.57956,0.44166 0.0837,0.13546 0.21175,0.2463 0.28451,0.2463 0.0728,0 0.0587,-0.11907 -0.0312,-0.26459 z m -5.9694,-1.45381 c 1.24334,-0.16505 2.80489,-0.90417 4.11732,-1.94883 1.19459,-0.95087 1.2918,-1.26837 0.66001,-2.15563 -0.30865,-0.43346 -0.47573,-0.92639 -0.37128,-1.09538 0.11475,-0.18567 0.0746,-0.23604 -0.10134,-0.12727 -0.37409,0.23119 -5.16368,-6.10233 -4.91682,-6.50176 0.10476,-0.1695 0.0609,-0.21859 -0.10425,-0.11655 -0.16249,0.10043 -0.87885,-0.62202 -1.66476,-1.67891 -0.75874,-1.02035 -1.48618,-1.85519 -1.61653,-1.85519 -0.63273,0 -2.86617,1.41355 -3.96874,2.51184 -1.57703,1.57088 -2.14704,2.77004 -2.28458,4.8062 -0.19586,2.89942 1.09539,5.38358 3.74645,7.20755 1.10198,0.75818 3.3847,1.3389 4.66871,1.18771 0.3638,-0.0428 1.18992,-0.14804 1.83581,-0.23378 z m -13.0617,-2.77574 c 0,-0.31073 -0.0971,-0.42825 -0.23775,-0.28764 -0.13076,0.13076 -0.15775,0.36719 -0.06,0.52539 0.24878,0.40253 0.29773,0.36344 0.29773,-0.23775 z m -4.20378,-0.31797 c -0.0845,-0.21107 -0.14716,-0.14837 -0.15986,0.15985 -0.0115,0.27891 0.0511,0.43518 0.13897,0.34727 0.0879,-0.0879 0.0973,-0.31613 0.0209,-0.50712 z m 29.71717,-2.66597 c 2.70964,-1.09891 2.77835,-1.1476 2.78719,-1.97498 0.0126,-1.17934 -0.33481,-2.00794 -0.77159,-1.84033 -0.21623,0.083 -0.48992,-0.14122 -0.67902,-0.55624 -0.17422,-0.38238 -0.54822,-0.85736 -0.8311,-1.0555 -0.28288,-0.19813 -0.44578,-0.47116 -0.362,-0.60673 0.0838,-0.13556 0.0344,-0.24648 -0.10985,-0.24648 -0.1442,0 -0.51874,-0.38695 -0.83231,-0.85989 -0.54549,-0.82272 -0.54627,-0.83289 -0.018,-0.23527 0.30367,0.34354 0.55212,0.51312 0.55212,0.37685 0,-0.13628 -0.29766,-0.52741 -0.66146,-0.86919 -0.3638,-0.34177 -0.66146,-0.53198 -0.66146,-0.42269 0,0.10929 -0.32742,-0.19176 -0.7276,-0.66901 -0.40019,-0.47724 -0.69489,-0.97148 -0.65491,-1.0983 0.04,-0.12682 -0.0358,-0.16351 -0.16845,-0.0815 -0.34857,0.21542 -0.91188,-0.5574 -0.67989,-0.93276 0.11186,-0.181 0.0842,-0.24799 -0.0645,-0.1561 -0.34375,0.21245 -3.07026,-2.55692 -2.80472,-2.84881 0.11289,-0.1241 0.0564,-0.13999 -0.12547,-0.0353 -0.1819,0.10468 -0.33073,0.0572 -0.33073,-0.10549 0,-0.16269 -0.10315,-0.23206 -0.22922,-0.15414 -0.12607,0.0779 -0.44218,-0.0936 -0.70247,-0.38126 -0.87439,-0.96619 -1.25004,-0.75656 -3.37875,1.88557 -0.53968,0.66983 -0.98122,1.37194 -0.98122,1.56025 0,0.18831 0.44648,0.87848 0.99218,1.53372 2.23636,2.68526 4.24618,5.48222 4.10432,5.71176 -0.0832,0.13454 -0.0435,0.17844 0.0881,0.0975 0.13162,-0.0809 0.65409,0.46626 1.16103,1.21589 1.73115,2.55988 2.76295,3.8765 3.03736,3.87581 0.15084,-3.8e-4 1.52441,-0.5077 3.05238,-1.12739 z m 2.23808,-2.85828 c -0.0959,-0.1552 -0.11766,-0.33893 -0.0483,-0.40828 0.0694,-0.0694 0.1966,0.0576 0.28277,0.28218 0.17891,0.46623 0.0264,0.54824 -0.23447,0.1261 z m 6.77197,-1.95965 c 1.05128,-0.79646 2.03233,-1.37337 2.18011,-1.28204 0.14778,0.0913 0.19539,0.0475 0.10581,-0.0975 -0.24085,-0.38971 1.55358,-2.03721 1.95122,-1.79146 0.22007,0.13601 0.26121,0.0943 0.12477,-0.12643 -0.29139,-0.47149 1.72891,-2.51412 2.04296,-2.06553 0.14727,0.21034 0.17412,0.12779 0.0746,-0.22922 -0.0948,-0.33978 0.003,-0.68963 0.25015,-0.89469 0.22315,-0.18521 0.95228,-1.21362 1.62027,-2.28537 0.68817,-1.10412 1.3353,-1.87399 1.49319,-1.7764 0.16703,0.10323 0.19992,0.0448 0.0821,-0.14584 -0.10812,-0.17493 0.13655,-1.08273 0.54371,-2.01733 0.40716,-0.93461 0.81782,-1.57382 0.91259,-1.42048 0.0948,0.15333 0.17,-0.0586 0.16719,-0.47095 -0.003,-0.41235 0.2058,-1.69528 0.46357,-2.85095 0.3795,-1.7014 0.44482,-2.90969 0.34331,-6.35 -0.10859,-3.67991 -0.23718,-4.66977 -0.96041,-7.39307 -0.90593,-3.41125 -2.33253,-6.64427 -4.21654,-9.55571 -0.65917,-1.01865 -1.18326,-2.08871 -1.16464,-2.37791 0.0211,-0.32734 -0.04,-0.40642 -0.16166,-0.20948 -0.2203,0.35644 -1.72134,-1.34544 -1.72134,-1.95165 0,-0.19566 -0.0606,-0.29513 -0.13471,-0.22104 -0.17235,0.17235 -1.36459,-0.93861 -1.36459,-1.27156 0,-0.13797 0.17859,-0.10264 0.39687,0.0785 0.62232,0.51648 0.46417,0.14103 -0.17777,-0.42202 -0.35914,-0.315 -0.48893,-0.35519 -0.34609,-0.10715 0.1966,0.34136 0.16636,0.34642 -0.21619,0.0362 -0.24461,-0.19839 -0.36744,-0.49605 -0.27295,-0.66146 0.0945,-0.16541 0.0744,-0.21249 -0.0447,-0.10461 -0.27848,0.25228 -0.96879,-0.31081 -0.77179,-0.62955 0.082,-0.13264 -0.003,-0.20845 -0.18933,-0.16846 -0.1861,0.04 -0.34378,-0.0662 -0.35039,-0.23598 -0.007,-0.16977 -0.12041,-0.4079 -0.25288,-0.52917 -0.13994,-0.1281 -0.16111,-0.0819 -0.0505,0.11025 0.36618,0.6363 -0.18871,0.32141 -1.39871,-0.79375 -0.67106,-0.61847 -1.18744,-1.22263 -1.14751,-1.34259 0.0399,-0.11995 -0.0354,-0.15134 -0.16744,-0.0697 -0.13202,0.0816 -0.52193,-0.0729 -0.86645,-0.34341 -1.19591,-0.93885 -4.60467,-2.83756 -6.33769,-3.53015 -2.99501,-1.19693 -4.95059,-1.5832 -8.54668,-1.68815 -3.23218,-0.0943 -4.33453,-0.35326 -3.97571,-0.93384 0.082,-0.13264 0.0505,-0.20845 -0.07,-0.16846 -0.40599,0.13477 -3.49566,-1.47969 -3.33359,-1.74191 0.0939,-0.15193 -0.0232,-0.18922 -0.28208,-0.0899 -0.24342,0.0934 -0.72062,0.0641 -1.06045,-0.0651 -0.48885,-0.18586 -0.77844,-0.0963 -1.38677,0.42872 -2.25602,1.94719 -8.88304,5.80002 -9.43235,5.48379 -0.1828,-0.10523 -0.24099,-0.0908 -0.1293,0.0321 0.58069,0.63894 -9.59901,4.09355 -15.54447,5.27521 -2.4763,0.49217 -5.09766,0.97424 -5.82527,1.07128 -0.7276,0.097 -1.62057,0.22587 -1.98437,0.28629 -4.52055,0.75076 -19.32879,0.75309 -24.606248,0.004 -9.27367,-1.31656 -17.38027,-3.88665 -22.81479,-7.23314 -0.83371,-0.51338 -1.44039,-1.05549 -1.34818,-1.20469 0.0922,-0.1492 0.0575,-0.20316 -0.0772,-0.11993 -0.13468,0.0832 -0.95639,-0.31654 -1.82604,-0.88839 -0.90199,-0.59311 -1.75199,-0.97229 -1.97883,-0.88275 -0.21871,0.0863 -1.25871,0.3235 -2.3111,0.52703 -3.56096,0.68867 -6.26895,2.11806 -8.76345,4.62571 l -1.34134,1.34842 -2.00915,-0.67481 c -3.00826,-1.01037 -5.11138,-1.2928 -8.55432,-1.14877 -2.46308,0.10304 -3.48183,0.27292 -5.06725,0.845 -1.09141,0.39382 -2.16871,0.77437 -2.39401,0.84566 -0.27464,0.0869 -0.82567,-0.43706 -1.67214,-1.59003 -0.69439,-0.9458 -1.43279,-1.86095 -1.64089,-2.03366 -0.20811,-0.17272 -0.37655,-0.44828 -0.37433,-0.61236 0.002,-0.16408 0.11947,-0.11974 0.26054,0.0985 0.1541,0.23847 0.25809,0.2711 0.26053,0.0818 0.0108,-0.83954 -1.07249,-0.34329 -2.98163,1.36588 -0.81884,0.73306 -3.23222,2.19905 -5.18364,3.14875 -2.41944,1.17747 -4.70805,1.93321 -7.72796,2.55193 -1.32987,0.27246 -2.47842,0.55585 -2.55232,0.62976 -0.20128,0.20128 0.70583,3.71027 1.57734,6.10161 1.59037,4.36386 4.82514,9.82107 7.4168,12.5125 0.45541,0.47294 0.75533,0.8599 0.66649,0.8599 -0.0888,0 0.21523,0.39414 0.6757,0.87587 0.46048,0.48173 0.89676,0.86869 0.96952,0.8599 0.33532,-0.0405 1.32177,1.22702 1.15939,1.48976 -0.11116,0.17986 -0.0631,0.22179 0.12274,0.10697 0.17346,-0.10721 0.84882,0.26597 1.56223,0.86324 3.44537,2.88447 8.53706,5.29634 13.5598,6.42313 4.51055,1.01189 13.49375,0.87707 13.49375,-0.2025 0,-0.17723 -0.37545,-1.25396 -0.83435,-2.39274 -1.43354,-3.55743 -1.30047,-5.09754 0.47901,-5.54416 1.10393,-0.27707 1.95214,0.61165 2.89987,3.03837 1.07972,2.76465 1.95687,4.43649 3.62943,6.91757 1.51016,2.2402 5.72648,6.70942 7.40135,7.84531 0.60999,0.41369 1.1686,0.81776 1.24136,0.89794 0.80326,0.88518 4.93101,2.99589 7.76394,3.97006 1.94431,0.66859 2.1517,0.69071 3.2832,0.35018 0.99458,-0.29932 6.67818,-0.36349 32.195408,-0.36349 28.6078,0 31.03786,-0.0342 31.6418,-0.44534 0.69646,-0.47412 4.28316,-3.12385 5.12747,-3.78799 2.07963,-1.63588 4.94591,-4.32989 6.07673,-5.7115 0.92048,-1.12462 1.42442,-1.55387 1.57774,-1.34389 0.14743,0.20189 0.17784,0.159 0.088,-0.12413 -0.16265,-0.51255 0.54553,-1.62684 0.89619,-1.41013 0.1339,0.0828 0.17605,-0.0252 0.0937,-0.23986 -0.23247,-0.6058 0.86396,-1.08403 1.65697,-0.72271 1.00741,0.459 1.61093,0.34699 2.12454,-0.39432 0.70644,-1.01962 2.25897,-2.48888 2.62994,-2.48888 0.60787,0 1.69505,0.52019 1.83176,0.87645 0.20933,0.54549 -0.39586,1.96298 -0.65741,1.5398 -0.16588,-0.2684 -0.24905,-0.24889 -0.37865,0.0888 -0.0971,0.25295 -0.0574,0.36563 0.0955,0.27115 0.41731,-0.25791 0.30491,0.12389 -0.27712,0.94127 -0.29627,0.41607 -0.69762,0.6955 -0.8919,0.62095 -0.19427,-0.0745 -0.43084,0.0667 -0.52571,0.31396 -0.14482,0.37739 -0.10785,0.39585 0.23044,0.1151 0.22207,-0.18431 0.40293,-0.21565 0.40293,-0.0698 0,0.14552 -0.1786,0.4128 -0.39688,0.59396 -0.64267,0.53337 -0.47532,0.89321 0.99219,2.13339 3.67875,3.10891 9.37179,9.79615 9.05113,10.63177 -0.0866,0.22576 -0.0317,0.48824 0.12207,0.58327 0.17402,0.10755 0.222,-0.007 0.12708,-0.30396 -0.10068,-0.31474 0.0855,-0.21829 0.54786,0.2838 0.3852,0.41831 0.63807,0.9229 0.56194,1.1213 -0.0761,0.19841 -0.009,0.33241 0.1497,0.29777 0.15848,-0.0346 0.34395,0.0896 0.41216,0.27603 0.0682,0.18645 -0.0211,0.30551 -0.19844,0.26458 -0.17735,-0.0409 -0.37617,0.10418 -0.44182,0.32246 -0.0708,0.2354 -0.0304,0.28923 0.0992,0.1323 0.35544,-0.43025 0.88336,-0.43149 1.048,-0.002 0.25305,0.65945 0.75292,0.46928 2.75667,-1.04876 z m 5.80662,-4.37274 c 0,-0.14552 -0.0525,-0.26459 -0.11668,-0.26459 -0.0642,0 -0.19026,0.11907 -0.2802,0.26459 -0.0899,0.14552 -0.0374,0.26458 0.11668,0.26458 0.15411,0 0.2802,-0.11906 0.2802,-0.26458 z m -16.39886,-0.40327 c 0.18407,-0.2218 0.28159,-0.45636 0.2167,-0.52125 -0.0649,-0.0649 -0.31881,0.11659 -0.56428,0.40327 -0.24546,0.28669 -0.34298,0.52125 -0.2167,0.52125 0.12628,0 0.3802,-0.18147 0.56428,-0.40327 z m -2.82442,-2.38627 c -0.0862,-0.22456 -0.21342,-0.35154 -0.28278,-0.28219 -0.0694,0.0694 -0.0476,0.25309 0.0483,0.40829 0.2609,0.42213 0.41338,0.34013 0.23448,-0.1261 z m 26.9447,-3.35321 c -0.18985,-0.18985 -0.31309,-0.20547 -0.31309,-0.0397 0,0.35316 0.3129,0.66606 0.48948,0.48948 0.0752,-0.0752 -0.004,-0.2776 -0.17639,-0.4498 z M 57.224012,166.68684 c -0.26131,-0.25937 -0.2917,-0.22898 -0.14811,0.14811 0.0994,0.26094 0.2473,0.40778 0.32876,0.32632 0.0815,-0.0815 1.7e-4,-0.29496 -0.18065,-0.47443 z m -30.7245,-1.41314 c 0,-0.21898 -0.51374,-0.34281 -0.63153,-0.15222 -0.0764,0.12364 0.0344,0.2248 0.2463,0.2248 0.21188,0 0.38523,-0.0327 0.38523,-0.0726 z m -10.02133,-13.13895 c -0.26131,-0.25936 -0.2917,-0.22897 -0.14811,0.14812 0.0994,0.26093 0.2473,0.40778 0.32876,0.32632 0.0815,-0.0815 1.7e-4,-0.29496 -0.18065,-0.47444 z M 194.7234,149.1556 c -0.0815,-0.0815 -0.2294,0.0654 -0.32876,0.32632 -0.14359,0.37708 -0.1132,0.40747 0.14811,0.14811 0.18082,-0.17947 0.26212,-0.39297 0.18065,-0.47443 z m -6.03431,-3.92074 c 0,-0.0502 -0.26789,-0.3181 -0.59532,-0.59531 l -0.59531,-0.50403 0.50403,0.59531 c 0.47366,0.55945 0.6866,0.71576 0.6866,0.50403 z m -0.95597,-6.30713 c -0.0764,-0.12364 -0.24977,-0.1563 -0.38523,-0.0726 -0.13547,0.0837 -0.2463,0.0191 -0.2463,-0.14359 0,-0.1627 -0.13178,-0.21437 -0.29283,-0.11483 -0.21219,0.13113 -0.20932,0.23259 0.0104,0.36839 0.42334,0.26164 1.08211,0.23469 0.91395,-0.0374 z m -68.86932,-1.53286 c 6.78431,-0.76695 6.9845,-0.80097 12.47406,-2.11979 6.96279,-1.67274 13.32854,-4.30815 18.01059,-7.45636 1.9617,-1.31904 6.099,-5.40236 7.2854,-7.19035 1.37785,-2.07651 2.14908,-4.26906 2.19277,-6.23384 0.0415,-1.86774 -0.48913,-11.80739 -0.73585,-13.78297 l -0.14869,-1.190624 -0.57994,1.596914 c -1.04412,2.8751 -4.19312,6.66041 -6.44232,7.74408 -0.47294,0.22787 -0.8599,0.52405 -0.8599,0.65819 0,0.13414 -0.1709,0.17831 -0.37978,0.0981 -0.20888,-0.0801 -0.41724,-0.045 -0.46302,0.078 -0.14848,0.39909 -3.3558,1.55817 -3.91036,1.41315 -0.32663,-0.0854 -0.5385,-0.0124 -0.5385,0.18546 0,0.20537 -0.24513,0.27943 -0.66146,0.19984 -0.3638,-0.0695 -0.66146,-0.0183 -0.66146,0.11379 0,0.34432 -8.30417,0.10263 -10.03605,-0.29209 -1.8147,-0.4136 -5.57181,-2.22285 -7.27269,-3.50219 -1.27444,-0.95858 -2.43152,-1.49195 -2.11078,-0.97299 0.20761,0.33592 -0.80163,1.41976 -2.14402,2.3025 -0.93759,0.61655 -1.31491,0.69492 -3.30729,0.68695 -1.9968,-0.008 -2.37676,-0.091 -3.3888,-0.74062 -0.62691,-0.40239 -1.49865,-1.11272 -1.93719,-1.5785 -0.57378,-0.60942 -0.83812,-0.74575 -0.94272,-0.48622 -0.12271,0.3045 -0.18093,0.3045 -0.37385,0 -0.16278,-0.25692 -0.22967,-0.16463 -0.23256,0.32082 -0.002,0.38458 -0.2983,0.95791 -0.67944,1.31598 -0.57552,0.54068 -0.71615,0.57684 -0.951,0.24456 -0.22529,-0.31875 -0.24739,-0.30274 -0.12105,0.0877 0.19079,0.58962 -1.27285,1.28896 -2.24576,1.07303 -0.5043,-0.11192 -0.55432,-0.0823 -0.24013,0.14211 0.29843,0.21316 -0.0297,0.28304 -1.32292,0.28172 -2.29937,-0.002 -4.58466,-1.09727 -5.10009,-2.44353 -0.21211,-0.55401 -0.96548,-0.90135 -1.210458,-0.55808 -0.31507,0.44145 -2.94986,2.53443 -2.94986,2.34325 0,-0.10358 -0.42731,0.13759 -0.94957,0.53594 -0.52227,0.39835 -1.55548,0.94574 -2.29603,1.21642 -0.74054,0.27068 -1.41457,0.59138 -1.49782,0.71266 -0.27232,0.39671 -3.56595,1.05998 -3.91223,0.78784 -0.20517,-0.16124 -1.16132,-0.14106 -2.64583,0.0558 -1.58768,0.21058 -2.66005,0.2259 -3.3829,0.0483 -0.98352,-0.24161 -1.01258,-0.27416 -0.41104,-0.46051 0.60202,-0.18651 0.61127,-0.21463 0.13229,-0.40207 -0.28325,-0.11084 -0.69359,-0.20153 -0.91187,-0.20153 -0.24392,0 -0.19293,0.0826 0.13229,0.21435 0.44823,0.18157 0.3785,0.24373 -0.45587,0.40638 -1.17818,0.22969 -3.72996,-0.30668 -3.46887,-0.72913 0.11108,-0.17973 0.0103,-0.22007 -0.27565,-0.11034 -0.24791,0.0951 -0.65439,0.0735 -0.9033,-0.0481 -2.48778,-1.21517 -3.08382,-1.57094 -3.49387,-2.08547 -0.26094,-0.32742 -0.55599,-0.59531 -0.65568,-0.59531 -0.72097,0 -4.26825,-4.55409 -3.94929,-5.07019 0.10947,-0.17711 0.0711,-0.23134 -0.0923,-0.13038 -0.35447,0.21907 -0.89539,-1.27956 -0.67198,-1.86175 0.10539,-0.27464 0.0608,-0.36777 -0.12193,-0.25482 -0.17306,0.10696 -0.35753,-0.13852 -0.46219,-0.61502 -0.0958,-0.43616 -0.29456,-0.86742 -0.44169,-0.95836 -0.17775,-0.10985 -0.21821,0.93239 -0.12059,3.10582 0.0808,1.79914 0.2212,6.12866 0.31198,9.62116 0.16212,6.23708 0.17832,6.37903 0.91114,7.98302 0.96255,2.10681 1.78947,3.30877 3.45589,5.02331 1.39236,1.43256 1.74899,1.73269 4.21647,3.54844 1.68956,1.2433 7.03443,3.9044 9.51524,4.73743 5.02303,1.6867 11.84733,2.94968 18.662878,3.45398 3.56988,0.26414 12.39484,0.11526 15.76742,-0.266 z m -98.807988,-0.76274 c 1.57951,-0.41608 3.55985,-1.06588 4.40076,-1.444 0.84091,-0.37812 1.73388,-0.62176 1.98437,-0.54144 0.38652,0.12393 0.39538,0.10283 0.0586,-0.13945 -0.29794,-0.21432 -0.30949,-0.2865 -0.0463,-0.28955 0.47329,-0.005 3.79438,-2.17164 4.97127,-3.24251 0.94379,-0.85875 1.78252,-2.04077 1.18688,-1.67264 -0.16004,0.0989 -0.29098,0.0548 -0.29098,-0.0981 0,-0.15285 -0.41749,-0.82484 -0.92775,-1.49332 -0.51027,-0.66848 -0.84906,-1.34275 -0.75287,-1.49838 0.10338,-0.16728 0.05,-0.20578 -0.13059,-0.0942 -0.168,0.10383 -0.30546,0.0766 -0.30546,-0.0606 0,-0.13715 -0.29178,-0.30513 -0.6484,-0.3733 -0.38631,-0.0738 -0.62694,-0.006 -0.59531,0.16759 0.0744,0.40879 -3.95121,2.41323 -6.09734,3.03597 -2.51239,0.72901 -5.45365,1.1679 -6.476,0.96634 -0.64415,-0.127 -0.7652,-0.0998 -0.47045,0.10558 0.32088,0.22363 0.26599,0.27737 -0.28663,0.28064 -0.37593,0.002 -0.74238,0.0629 -0.81433,0.13487 -0.16618,0.16618 0.91682,6.23897 1.19168,6.6822 0.29577,0.47696 0.83875,0.41986 4.04891,-0.42578 z m 18.74496,0.49496 c 0.0927,-0.14998 -0.0135,-0.19434 -0.24897,-0.10398 -0.45837,0.17589 -0.54224,0.36553 -0.16165,0.36553 0.13693,0 0.32171,-0.1177 0.41062,-0.26155 z m 141.157068,-0.5322 c 0,-0.14552 -0.12609,-0.26458 -0.2802,-0.26458 -0.15411,0 -0.20661,0.11906 -0.11668,0.26458 0.0899,0.14552 0.21603,0.26459 0.2802,0.26459 0.0642,0 0.11668,-0.11907 0.11668,-0.26459 z m 2.38125,-1.68936 c 0,-0.056 -0.27782,-0.28389 -0.61736,-0.50637 -0.50223,-0.32907 -0.61736,-0.33692 -0.61736,-0.0421 0,0.19934 0.0751,0.316 0.16697,0.25925 0.0918,-0.0568 0.33988,0.006 0.55121,0.13988 0.42995,0.27199 0.51654,0.29701 0.51654,0.14931 z M 33.907852,133.09861 c 0,-0.11433 -0.17157,-0.20788 -0.38126,-0.20788 -0.2097,0 -0.43908,0.0935 -0.50974,0.20788 -0.0707,0.11434 0.1009,0.20789 0.38126,0.20789 0.28035,0 0.50974,-0.0936 0.50974,-0.20789 z m 22.94717,-1.26438 c 0.66013,-0.58107 1.51184,-1.21668 1.89268,-1.41246 0.38084,-0.19578 1.22822,-0.65697 1.88306,-1.02486 0.65485,-0.36789 2.11336,-0.94025 3.24115,-1.27191 1.12778,-0.33167 2.05052,-0.66455 2.05052,-0.73976 0,-0.18873 -1.64092,-2.75804 -2.00354,-3.13708 -0.16217,-0.16951 -0.44341,-0.70529 -0.62499,-1.19063 -0.80443,-2.15013 -0.73472,-2.07305 -1.87487,-2.07305 -1.45451,0 -4.91254,-0.72786 -6.21223,-1.30757 -0.58208,-0.25963 -1.6985,-0.90719 -2.48094,-1.43901 -1.33074,-0.90451 -1.44562,-0.93676 -1.77887,-0.49925 -0.19595,0.25723 -0.43279,0.70583 -0.52633,0.99687 -0.0935,0.29104 -0.45729,0.91262 -0.80834,1.38128 -2.42758,3.24086 -3.03488,6.07386 -1.84029,8.58473 0.91295,1.91891 1.80189,2.80824 3.00251,3.00385 0.54597,0.089 1.58799,0.37873 2.3156,0.64396 1.98474,0.72348 2.42641,0.66305 3.76488,-0.51511 z m 115.609568,-4.18338 c 0.46262,-0.39625 1.20676,-1.41553 1.65365,-2.26507 0.96539,-1.83524 1.06218,-3.47399 0.32047,-5.42601 -0.53306,-1.40289 -3.12597,-5.32529 -3.52029,-5.32529 -0.13314,0 -0.74335,0.25628 -1.35602,0.56952 -1.52458,0.77946 -3.49869,1.27566 -5.09013,1.27942 l -1.33036,0.003 -0.64282,2.05052 c -0.58338,1.86093 -1.50885,3.64252 -2.97128,5.71993 l -0.53431,0.75899 0.75873,0.62056 c 0.4173,0.3413 0.8963,0.62484 1.06443,0.63007 0.16813,0.005 0.81509,0.4351 1.43768,0.95526 l 1.13198,0.94574 2.1342,-0.16379 c 1.1738,-0.0901 2.66997,-0.0525 3.32482,0.0836 2.02238,0.42021 2.71672,0.33646 3.61925,-0.43659 z M 17.569892,126.09753 c 0.55796,0.0721 0.92748,0.0235 0.84428,-0.11114 -0.0814,-0.13168 0.18648,-0.2492 0.59525,-0.26117 1.36529,-0.04 2.29338,-0.26976 4.30385,-1.06561 3.17508,-1.25686 4.65472,-2.15148 4.56202,-2.75828 -0.31796,-2.08128 0.0101,-2.613 2.39742,-3.88541 2.17999,-1.16192 2.78656,-2.49045 1.91053,-4.1845 -0.59368,-1.14805 -1.50814,-1.2643 -3.2013,-0.40698 -0.77886,0.39437 -1.55536,0.63097 -1.72556,0.52578 -0.19316,-0.11937 -0.23851,-0.0765 -0.12067,0.11421 0.13051,0.21117 -0.13333,0.30546 -0.85473,0.30546 -0.81715,0 -1.13622,-0.14146 -1.47083,-0.65215 -1.12409,-1.71558 -0.16174,-2.78729 4.13676,-4.60691 1.22413,-0.5182 1.25677,-0.56179 1.25677,-1.67864 0,-0.63065 -0.17857,-1.40158 -0.39682,-1.71318 -0.21825,-0.31159 -0.35683,-0.72504 -0.30795,-0.91876 0.0489,-0.19373 0.036,-0.25423 -0.0285,-0.13444 -0.0646,0.11978 -0.40353,-0.051 -0.75321,-0.37951 -0.48475,-0.4554 -0.55655,-0.6545 -0.30224,-0.83806 0.23388,-0.16881 0.19491,-0.19614 -0.1304,-0.0915 -0.25517,0.0821 -1.01705,-0.14477 -1.69305,-0.5042 -0.85707,-0.45571 -1.64919,-0.65352 -2.61702,-0.65352 -1.45,0 -4.7404,0.87772 -5.02664,1.34086 -0.0911,0.14749 -0.4236,0.20489 -0.73878,0.12755 -0.31517,-0.0773 -0.43591,-0.0761 -0.2683,0.003 0.18157,0.0853 -0.20973,0.6577 -0.96809,1.41607 -2.24576,2.24576 -3.34201,5.23016 -3.61328,9.83667 -0.15825,2.68732 0.17534,6.87865 0.7141,8.97205 0.13108,0.50933 0.26608,1.29496 0.3,1.74586 0.0614,0.81677 0.0657,0.8189 1.13294,0.57415 0.58919,-0.13511 1.51776,-0.18793 2.0635,-0.11737 z m 12.01643,-1.25137 c 0,-0.212 -0.16107,-0.30984 -0.37496,-0.22776 -0.30858,0.11841 -0.31248,0.18349 -0.022,0.3676 0.1941,0.12304 0.36283,0.22553 0.37496,0.22776 0.0121,0.002 0.0221,-0.16319 0.0221,-0.3676 z m -1.31856,-4.44046 c -0.0845,-0.21107 -0.14716,-0.14837 -0.15986,0.15985 -0.0115,0.27892 0.0511,0.43519 0.13897,0.34727 0.0879,-0.0879 0.0973,-0.31612 0.0209,-0.50712 z m 1.67134,-1.6888 c 0,-0.0728 -0.23813,-0.005 -0.52917,0.15091 -0.29104,0.15576 -0.52917,0.34273 -0.52917,0.41549 0,0.0728 0.23813,0.005 0.52917,-0.15091 0.29104,-0.15576 0.52917,-0.34273 0.52917,-0.41549 z m 31.86348,-8.3163 c -0.0103,-3.41944 -0.0401,-7.81152 -0.0661,-9.76019 l -0.0473,-3.543024 -2.22396,0.13875 c -4.74304,0.2959 -8.19077,3.138614 -8.86205,7.306904 -0.72616,4.50904 1.89475,9.6118 5.66206,11.02369 0.7276,0.27268 1.38244,0.56811 1.4552,0.65651 0.0728,0.0884 0.60406,0.18923 1.18065,0.22409 0.5766,0.0349 1.07269,0.0877 1.10243,0.11745 0.0297,0.0297 0.45095,0.0538 0.93602,0.0535 l 0.88195,-5.5e-4 z m 113.936848,4.64874 c -0.17879,-0.21543 -0.23782,-0.54573 -0.13118,-0.734 0.14669,-0.25899 0.11474,-0.26941 -0.13124,-0.0428 -0.25682,0.23662 -0.25319,0.41472 0.0173,0.84787 0.18834,0.30158 0.39367,0.49709 0.4563,0.43446 0.0626,-0.0626 -0.0324,-0.29012 -0.2112,-0.50554 z m -7.64334,-3.77685 c 1.76898,-0.95573 3.24573,-2.52685 4.24588,-4.5172 0.8261,-1.64398 0.86899,-1.87418 0.86899,-4.66413 0,-2.647384 -0.0675,-3.064374 -0.68944,-4.257724 -0.83248,-1.59738 -3.11722,-3.53516 -4.91154,-4.16567 -0.703,-0.24703 -2.23419,-0.54575 -3.40265,-0.6638 l -2.12446,-0.21466 0.0371,0.93456 c 0.0476,1.19805 0.40718,7.711024 0.51175,9.268944 0.0439,0.65485 0.16505,2.91703 0.2691,5.02708 0.10405,2.11006 0.29232,3.96629 0.41836,4.12497 0.35645,0.44873 3.3402,-0.0962 4.77688,-0.87237 z m -79.088768,0.36619 c 0.40019,-0.0258 0.72761,-0.13621 0.72761,-0.24535 0,-0.10914 0.23366,-0.19844 0.51924,-0.19844 1.22966,0 6.18047,-2.4322 7.37344,-3.62237 0.19364,-0.19318 0.47992,-0.27222 0.6362,-0.17564 0.15627,0.0966 0.21199,0.0589 0.12382,-0.0838 -0.17482,-0.28287 1.633248,-2.11279 1.981258,-2.00519 0.11768,0.0364 0.18784,-0.0232 0.15592,-0.1323 -0.111,-0.37957 1.4473,-2.43761 1.7187,-2.26988 0.15025,0.0929 0.19695,0.0455 0.10379,-0.10524 -0.0932,-0.15074 0.43912,-1.33 1.18285,-2.62057 0.74373,-1.290574 2.08148,-3.825694 2.97278,-5.633604 0.8913,-1.80791 1.98064,-3.67133 2.42076,-4.14092 1.49058,-1.59042 4.1743,-1.78688 5.64231,-0.41305 0.93811,0.87793 2.25759,2.94629 1.87954,2.94629 -0.15593,0 -0.20873,0.121 -0.11732,0.26889 0.0914,0.1479 0.29542,0.18903 0.45337,0.0914 0.18229,-0.11267 0.21003,-0.0527 0.076,0.16428 -0.13196,0.21351 -0.0148,0.50189 0.3121,0.76848 0.28783,0.23469 1.22618,1.55781 2.08524,2.94026 2.4016,3.864804 4.19907,6.381414 5.36229,7.507644 0.66534,0.64418 1.00839,1.18515 0.92281,1.45521 -0.0961,0.30324 -0.0666,0.33364 0.10027,0.1032 0.30222,-0.41744 1.50264,0.3449 1.23218,0.78251 -0.0977,0.15805 -0.0616,0.21567 0.0802,0.12805 0.14178,-0.0876 1.40335,0.41522 2.80349,1.11744 1.40015,0.70221 2.88012,1.34102 3.28883,1.41957 0.40872,0.0785 1.21937,0.28219 1.80145,0.45253 1.22506,0.3585 10.07246,0.57008 9.2602,0.22145 -0.41352,-0.17748 -0.34436,-0.20817 0.31697,-0.14061 0.46526,0.0475 0.7989,0.0103 0.74143,-0.0827 -0.0575,-0.093 0.69735,-0.42733 1.6774,-0.74297 0.98004,-0.31565 2.32081,-0.91567 2.97948,-1.33339 1.45769,-0.92444 4.69731,-3.91846 5.04303,-4.66071 0.13801,-0.29629 0.47888,-0.95544 0.75751,-1.46476 1.23535,-2.258244 1.61192,-4.176874 1.60265,-8.165554 -0.005,-2.08995 -0.13636,-4.5032 -0.29223,-5.36278 -0.15587,-0.85957 -0.19983,-1.69808 -0.0977,-1.86335 0.11397,-0.18441 0.0677,-0.22756 -0.11974,-0.11171 -0.18995,0.11739 -0.30547,-10e-4 -0.30547,-0.31374 0,-0.80629 -1.47127,-3.50738 -2.76975,-5.084954 -1.92704,-2.341247 -5.1038,-3.988222 -8.34275,-4.325261 -1.05368,-0.109645 -4.2723,-0.02344 -17.35564,0.464816 l -3.46502,0.129311 0.39043,-1.185947 c 0.50468,-1.533001 2.2211,-3.170044 4.14255,-3.950981 3.06929,-1.247453 8.00805,-1.087767 11.03485,0.356794 1.55399,0.741648 2.95722,2.071024 2.96137,2.805512 8.9e-4,0.15684 0.65595,0.31358 1.47726,0.35347 0.81161,0.03942 1.89238,0.212384 2.4017,0.384365 0.50933,0.171981 1.05325,0.288303 1.20872,0.258493 0.98666,-0.189178 6.16266,3.333315 5.78824,3.939143 -0.082,0.132615 0.0493,0.241118 0.29178,0.241118 0.28967,0 0.38677,0.140776 0.28323,0.410617 -0.091,0.237182 -0.0462,0.341811 0.10601,0.247714 0.30611,-0.18919 1.10839,0.521275 0.86428,0.76538 -0.0901,0.09008 -0.0249,0.163789 0.14489,0.163789 0.16978,0 0.30869,0.178594 0.30869,0.396871 0,0.21829 0.10632,0.39688 0.23628,0.39688 0.12996,0 0.41563,0.44648 0.63483,0.99219 0.38938,0.96937 0.39675,0.93134 0.32089,-1.653649 -0.13155,-4.482144 -0.45551,-8.975306 -0.67824,-9.406853 -0.11668,-0.226061 -0.87897,-0.737535 -1.69399,-1.136609 -0.90506,-0.443165 -1.41128,-0.839765 -1.30055,-1.018923 0.11187,-0.18101 0.0601,-0.21847 -0.13505,-0.09783 -0.17399,0.107529 -1.63283,-0.356772 -3.24187,-1.031781 -6.8056,-2.85501 -17.71041,-4.775604 -29.0673,-5.11944 -11.61728,-0.351719 -19.86127,0.303154 -29.924108,2.377061 -2.24117,0.461895 -4.46511,0.840296 -4.94209,0.840891 -0.54519,6.81e-4 -0.7417,0.08075 -0.52917,0.215626 0.31453,0.199596 -0.32286,0.318262 -1.69929,0.316368 -0.24742,-3.41e-4 -0.39294,0.09148 -0.32337,0.204044 0.0696,0.112565 -0.32331,0.294606 -0.87305,0.404534 -0.54975,0.109929 -1.05907,0.212476 -1.13183,0.227882 -0.0728,0.01541 -0.58879,0.227241 -1.14672,0.470745 -0.55793,0.243503 -1.46503,0.564072 -2.01579,0.712375 -0.55075,0.148303 -1.8047,0.633891 -2.78656,1.079084 -0.98185,0.445194 -1.97612,0.736176 -2.20947,0.646628 -0.23336,-0.08955 -0.34105,-0.07957 -0.23931,0.02217 0.19705,0.197044 -2.04926,1.43048 -2.60516,1.43048 -0.18149,0 -0.36967,0.09463 -0.41817,0.210295 -0.1622,0.386745 -2.36818,1.389263 -2.66005,1.208873 -0.16876,-0.104296 -0.21242,-0.05566 -0.10543,0.117453 0.10673,0.172689 -0.26108,0.589089 -0.88516,1.002081 l -1.06777,0.706616 0.001,3.338278 c 0.002,4.010494 0.27554,8.497654 0.5187,8.497654 0.0966,0 0.37742,-0.42307 0.624,-0.94015 0.27922,-0.58553 0.56416,-0.86855 0.75542,-0.75034 0.20537,0.12692 0.25114,0.0439 0.13816,-0.25048 -0.0929,-0.24216 -0.0966,-0.62886 -0.008,-0.85934 0.12947,-0.3374 0.2044,-0.35029 0.38452,-0.0661 0.15182,0.23951 0.22501,0.10588 0.22776,-0.41586 0.004,-0.8411 1.16367,-2.56889 1.6564,-2.46879 0.16939,0.0344 0.31338,-0.0825 0.32,-0.25976 0.0259,-0.693641 1.89061,-2.259421 3.73074,-3.132639 1.9519,-0.926257 3.94231,-1.439825 5.58026,-1.439825 0.77857,0 0.99198,-0.160273 1.67346,-1.256771 0.92446,-1.487452 1.9523,-2.221263 4.10881,-2.933415 2.12022,-0.700165 7.47512,-1.373221 7.18471,-0.903043 -0.0674,0.109141 0.3781,0.209294 0.99004,0.222562 1.96331,0.04257 4.97606,2.240906 5.33425,3.892286 0.10094,0.465349 0.30247,0.921822 0.44786,1.014383 0.14538,0.09256 -2.102,0.242094 -4.99418,0.332293 -16.21458,0.505689 -18.01979,0.71228 -20.94246,2.396682 -0.62253,0.358779 -1.2951,0.58969 -1.4946,0.513136 -0.19949,-0.07655 -0.44047,-0.01337 -0.53551,0.140402 -0.10885,0.176123 0.004,0.217709 0.30397,0.112376 0.37788,-0.132537 -0.51141,0.952593 -2.30404,2.811443 -0.16436,0.17043 -1.45091,2.84455 -1.72217,3.57954 -0.55147,1.49429 -0.79322,7.12782 -0.41133,9.58555 0.41474,2.669111 1.09022,5.139921 1.52558,5.580351 0.18987,0.19207 0.41783,0.63856 0.50659,0.99218 0.0888,0.35363 0.2595,0.64296 0.37944,0.64296 0.11994,0 0.29152,0.23142 0.38129,0.51427 0.30828,0.97129 3.79343,4.0121 5.75039,5.01724 0.39521,0.20299 0.65692,0.46883 0.58157,0.59075 -0.0753,0.12193 0.037,0.1549 0.24973,0.0733 0.21271,-0.0816 0.74849,0.0387 1.19062,0.2673 1.57099,0.81239 5.19897,1.00058 11.48086,0.59553 z m -6.10214,-9.96587 c -1.48375,-0.35122 -3.36833,-1.840374 -4.32343,-3.416274 -0.7867,-1.29806 -0.88536,-1.67298 -0.88536,-3.36454 0,-1.79029 0.063,-1.99455 1.05833,-3.42935 2.66448,-3.84107 7.3375,-4.22112 10.68927,-0.86935 1.37435,1.37435 2.2508,3.62322 2.0354,5.22261 -0.5388,4.00071 -4.62477,6.791774 -8.57421,5.856904 z m -0.93136,-3.298574 c 0,-0.21188 -0.10116,-0.32271 -0.2248,-0.2463 -0.12365,0.0764 -0.15631,0.24977 -0.0726,0.38524 0.21394,0.34617 0.29738,0.30719 0.29738,-0.13894 z m 3.57587,-0.14393 c 0.29369,0 0.9388,-0.40481 1.43357,-0.89958 0.78428,-0.78428 0.89958,-1.06994 0.89958,-2.22866 0,-1.03624 -0.14764,-1.50454 -0.67011,-2.12546 -1.35903,-1.61511 -3.67863,-1.7259 -5.12663,-0.24485 -0.83423,0.85327 -0.94177,1.22154 -0.83303,2.85272 0.10011,1.50161 2.13542,3.14524 3.41027,2.75398 0.1938,-0.0595 0.59266,-0.10815 0.88635,-0.10815 z m 51.246518,1.62898 c -1.9232,-0.77783 -3.05097,-1.79715 -3.92619,-3.54861 -1.2573,-2.51609 -0.96003,-4.5956 1.0073,-7.04646 3.32597,-4.14341 10.11286,-2.77016 11.77713,2.38297 0.56779,1.75805 0.55067,2.55455 -0.0918,4.27171 -1.26479,3.38045 -5.47351,5.272214 -8.76644,3.94039 z m 3.99687,-3.25121 c 0.21475,-0.0537 0.59932,-0.35144 0.85461,-0.66173 2.3526,-2.85956 -0.25034,-6.75903 -3.69942,-5.54213 -0.58832,0.20757 -1.13997,0.32695 -1.22588,0.26529 -0.0859,-0.0617 -0.10059,-0.0366 -0.0326,0.0556 0.068,0.0923 -0.1106,0.46549 -0.39688,0.82943 -0.65155,0.82832 -0.70206,2.85922 -0.0927,3.72914 0.98937,1.41253 2.49855,1.84771 4.5929,1.32439 z m 1.89134,-0.56499 c -0.26131,-0.25936 -0.2917,-0.22897 -0.14811,0.14811 0.0994,0.26094 0.2473,0.40778 0.32876,0.32632 0.0815,-0.0815 1.7e-4,-0.29495 -0.18065,-0.47443 z m 3.86426,13.933624 c -0.0879,-0.0879 -0.31612,-0.0973 -0.50712,-0.0209 -0.21106,0.0845 -0.14837,0.14716 0.15986,0.15985 0.27891,0.0115 0.43518,-0.051 0.34726,-0.13896 z m 29.51917,-2.04501 c 0.0745,-0.19403 -0.0205,-0.35278 -0.21105,-0.35278 -0.19054,0 -0.28551,0.15875 -0.21105,0.35278 0.0745,0.19403 0.16942,0.35278 0.21105,0.35278 0.0416,0 0.13659,-0.15875 0.21105,-0.35278 z M 15.038592,106.38279 c -0.0845,-0.21107 -0.14716,-0.14838 -0.15985,0.15985 -0.0115,0.27891 0.051,0.43518 0.13896,0.34726 0.0879,-0.0879 0.0973,-0.31612 0.0209,-0.50711 z m 111.401758,0.41892 c -0.0879,-0.0879 -0.31612,-0.0973 -0.50712,-0.0209 -0.21107,0.0845 -0.14837,0.14716 0.15985,0.15985 0.27892,0.0115 0.43519,-0.051 0.34727,-0.13896 z m 47.25879,-1.57135 c -0.0862,-0.22456 -0.21342,-0.35154 -0.28277,-0.28219 -0.0694,0.0694 -0.0476,0.25309 0.0483,0.40829 0.26089,0.42213 0.41338,0.34012 0.23447,-0.1261 z M 17.329612,103.66774 c 0.0981,-0.25574 0.02,-0.33461 -0.23476,-0.23685 -0.21003,0.0806 -0.316,0.25312 -0.23549,0.3834 0.20278,0.32811 0.2997,0.29791 0.47025,-0.14655 z m 89.094988,-1.53482 c 0.35229,-0.76399 0.86641,-1.62719 1.14247,-1.91823 0.27606,-0.291054 0.40998,-0.367594 0.29759,-0.1701 -0.15555,0.27336 -0.0683,0.31591 0.36541,0.17825 0.39834,-0.12643 1.08653,0.10324 2.28761,0.76343 l 1.71787,0.94426 1.33178,-0.93608 c 1.41316,-0.99329 2.77821,-1.637084 2.49314,-1.175844 -0.0897,0.14508 -0.0369,0.263784 0.11717,0.263784 0.15411,0 0.28399,-0.148824 0.28862,-0.330724 0.005,-0.18409 0.18323,-0.0995 0.40271,0.19084 0.21686,0.286874 0.3335,0.680004 0.2592,0.873644 -0.0743,0.19363 -0.0348,0.29008 0.0878,0.21432 0.23996,-0.1483 0.93181,1.06404 0.95213,1.66843 0.0176,0.52265 1.47285,0.61406 2.1992,0.13815 0.60337,-0.39535 0.60403,-0.40227 0.10638,-1.11322 -0.27542,-0.39347 -0.44276,-0.88079 -0.37187,-1.08295 0.0709,-0.20216 0.0126,-0.29569 -0.12952,-0.20786 -0.14212,0.0878 -1.01308,-1.115984 -1.93545,-2.675154 -0.92237,-1.55917 -2.13098,-3.59076 -2.68579,-4.51464 -0.55481,-0.92389 -0.93037,-1.81686 -0.83458,-1.98438 0.0958,-0.16752 0.0754,-0.21502 -0.0452,-0.10556 -0.12066,0.10945 -0.41672,0.0204 -0.6579,-0.19785 -0.53569,-0.48478 -2.6927,-0.92013 -3.04976,-0.61553 -0.14236,0.12144 -0.52043,0.42841 -0.84017,0.68216 -0.46569,0.36959 -6.16554,11.320514 -6.16554,11.845644 0,0.18819 1.08009,0.61629 1.60842,0.6375 0.25402,0.0102 0.66889,-0.52775 1.05834,-1.37229 z M 52.957852,94.465416 c 2.04848,-0.97274 3.49711,-1.33142 6.08541,-1.50674 l 2.24896,-0.15233 -0.0961,-8.87374 -0.0961,-8.873751 0.72697,-0.863953 c 1.92089,-2.282847 8.42534,-5.631272 16.26634,-8.373743 5.65824,-1.979028 17.22423,-4.435066 24.473958,-5.197043 2.32896,-0.244783 6.8569,-0.357998 14.02291,-0.350625 12.57965,0.01294 14.22099,0.163119 24.87083,2.27557 1.45521,0.288648 3.24115,0.704716 3.96875,0.924596 3.77235,1.139993 5.63339,1.745591 6.35,2.066351 0.43657,0.195407 1.38907,0.611079 2.11667,0.923715 1.74535,0.749942 4.95448,2.381282 5.43751,2.764127 1.35032,1.070245 1.47233,1.893494 2.50425,16.897766 l 0.17742,2.57969 1.89353,0.004 c 3.09525,0.006 5.45625,0.72796 8.40428,2.5685 0.67277,0.42003 0.71057,0.40821 1.52118,-0.47553 1.14022,-1.24307 2.57963,-4.15757 2.96138,-5.99615 0.1825,-0.87895 0.26241,-2.560681 0.18868,-3.970837 -0.1079,-2.063463 -0.258,-2.705051 -0.95948,-4.101042 -0.9838,-1.957839 -1.26887,-2.301041 -3.3476,-4.030238 -0.87078,-0.724358 -1.66072,-1.42665 -1.75543,-1.560648 -0.0947,-0.133998 0.0629,-0.791498 0.35013,-1.46111 1.57326,-3.667099 1.98872,-8.869265 0.9957,-12.467586 -1.25933,-4.563335 -4.43711,-8.096858 -8.84846,-9.839023 -1.4521,-0.573475 -4.84978,-1.059184 -6.97193,-0.996659 -2.50272,0.07374 -2.56023,0.0626 -3.42215,-0.662653 -0.68127,-0.573248 -0.80265,-0.892723 -0.96493,-2.539621 -0.20717,-2.102434 -1.37187,-5.412364 -2.70643,-7.691327 -1.58325,-2.703645 -4.70908,-5.583719 -7.62848,-7.028723 -2.54067,-1.257541 -3.90753,-1.532761 -7.54063,-1.51832 -3.8576,0.01533 -6.06808,0.582735 -8.43744,2.165785 -1.56195,1.043594 -2.4467,0.832872 -4.47147,-1.064982 -2.55932,-2.398907 -5.36054,-4.221549 -7.59629,-4.942621 -0.58209,-0.187733 -1.1774,-0.434291 -1.32292,-0.547907 -0.57037,-0.445322 -4.79665,-0.849896 -7.38051,-0.706523 -4.94531,0.274405 -9.465328,2.400185 -12.588588,5.920446 -0.62427,0.703627 -1.75415,2.350885 -2.51084,3.660573 -1.52883,2.646138 -1.53961,2.650891 -3.60486,1.589565 -3.08102,-1.583332 -7.96623,-2.048141 -11.61832,-1.10544 -4.20884,1.086413 -8.36228,4.174281 -10.60298,7.882769 -1.35847,2.248344 -2.3616,5.843932 -2.3616,8.464837 0,1.173359 -0.12161,1.857522 -0.36625,2.060559 -0.20144,0.167178 -1.30277,0.474572 -2.4474,0.683099 -2.87954,0.52459 -3.92633,0.853901 -5.94612,1.870604 -3.28771,1.654941 -5.95965,4.740002 -7.14454,8.249191 -0.79388,2.351146 -0.76819,2.215266 -0.94454,4.996832 -0.18598,2.933512 0.33587,5.637622 1.65981,8.600657 0.49585,1.109722 0.90154,2.166854 0.90154,2.349182 0,0.182329 -0.38696,0.777732 -0.8599,1.323119 -2.01677,2.325699 -2.3606,2.863627 -2.87402,4.496482 -0.98867,3.14435 -0.62728,7.40206 0.88707,10.45104 0.28911,0.58208 1.17512,2.04147 1.96891,3.24307 l 1.44327,2.18474 1.76785,-1.80345 c 1.08616,-1.10802 2.329,-2.06991 3.22307,-2.49446 z m 119.332358,1.05291 c 0.28129,-0.58045 0.27796,-0.58213 -0.13343,-0.0674 -0.36231,0.4533 -0.45725,0.47199 -0.672,0.13229 -0.13755,-0.21757 -0.25191,-0.2666 -0.25414,-0.10895 -0.0112,0.79489 0.68176,0.82373 1.05957,0.0441 z m -56.41542,-3.3614 c -0.36507,-0.58457 -0.62211,-0.5117 -0.38398,0.10885 0.0862,0.22455 0.28048,0.40828 0.4318,0.40828 0.17414,0 0.15658,-0.18982 -0.0478,-0.51713 z M 70.828102,82.073122 c 0.28476,-0.460757 -0.0396,-0.558334 -0.40245,-0.121082 -0.20869,0.251455 -0.22876,0.403266 -0.0533,0.403266 0.15475,0 0.35985,-0.126981 0.45577,-0.282184 z m 84.258908,-0.24698 c 0,-0.145521 -0.12609,-0.264583 -0.2802,-0.264583 -0.15411,0 -0.20662,0.119062 -0.11668,0.264583 0.0899,0.145521 0.21603,0.264583 0.2802,0.264583 0.0642,0 0.11668,-0.119062 0.11668,-0.264583 z M 81.369222,76.917609 c 0.0904,-0.23546 0.046,-0.341663 -0.10399,-0.248969 -0.14385,0.08891 -0.26155,0.273684 -0.26155,0.410617 0,0.380585 0.18964,0.29672 0.36554,-0.161648 z m 1.61883,-1.70605 c 0.0899,-0.145521 0.0374,-0.264583 -0.11667,-0.264583 -0.15411,0 -0.2802,0.119062 -0.2802,0.264583 0,0.145521 0.0525,0.264583 0.11668,0.264583 0.0642,0 0.19026,-0.119062 0.28019,-0.264583 z m 94.415258,-1.995786 c -0.0862,-0.224557 -0.21342,-0.351541 -0.28278,-0.282186 -0.0694,0.06935 -0.0476,0.253083 0.0483,0.408286 0.2609,0.422132 0.41338,0.340124 0.23448,-0.1261 z m 0.85556,-0.854784 c -0.45559,-0.436374 -0.46123,-0.430736 -0.12655,0.126558 0.19265,0.320804 0.40723,0.526328 0.47684,0.456721 0.0696,-0.06961 -0.088,-0.332083 -0.35029,-0.583279 z m -40.9706,-0.484282 c -0.0879,-0.08792 -0.31613,-0.09732 -0.50712,-0.02089 -0.21107,0.08446 -0.14838,0.147156 0.15985,0.159852 0.27891,0.01149 0.43518,-0.05105 0.34727,-0.138964 z m 8.16979,-45.473112 c -0.0314,-0.21407 -0.13101,-0.463104 -0.22132,-0.553411 -0.12719,-0.127187 -0.10242,0.409705 0.0404,0.876482 0.0782,0.255349 0.2268,-0.01017 0.18088,-0.323071 z"
       id="path1" /></g></svg>
